<svg width="70" height="91" viewBox="0 0 70 91" fill="none" xmlns="http://www.w3.org/2000/svg">
<g id="Ellipse 2" filter="url(#filter0_d_1_590)">
<path d="M51.8101 80.8847C56.7506 73.859 59.5772 65.5661 59.9562 56.9855C60.3351 48.405 58.2506 39.8952 53.9487 32.4612C49.6469 25.0273 43.3074 18.9797 35.679 15.0328C28.0507 11.0859 19.4522 9.40452 10.899 10.1873L12.7381 30.284C17.4555 29.8523 22.198 30.7796 26.4053 32.9565C30.6126 35.1334 34.1091 38.4689 36.4818 42.569C38.8544 46.6691 40.0041 51.3626 39.7951 56.0951C39.5861 60.8276 38.0271 65.4015 35.3022 69.2764L51.8101 80.8847Z" fill="#3C4BA6"/>
</g>
<defs>
<filter id="filter0_d_1_590" x="0.898926" y="-3.05176e-05" width="69.1011" height="90.8847" filterUnits="userSpaceOnUse" color-interpolation-filters="sRGB">
<feFlood flood-opacity="0" result="BackgroundImageFix"/>
<feColorMatrix in="SourceAlpha" type="matrix" values="0 0 0 0 0 0 0 0 0 0 0 0 0 0 0 0 0 0 127 0" result="hardAlpha"/>
<feOffset/>
<feGaussianBlur stdDeviation="5"/>
<feColorMatrix type="matrix" values="0 0 0 0 0.980392 0 0 0 0 0.458824 0 0 0 0 0.396078 0 0 0 0.2 0"/>
<feBlend mode="normal" in2="BackgroundImageFix" result="effect1_dropShadow_1_590"/>
<feBlend mode="normal" in="SourceGraphic" in2="effect1_dropShadow_1_590" result="shape"/>
</filter>
</defs>
</svg>
